<?xml version="1.0" encoding="UTF-8"?>
<svg version="1.1" viewBox="0 0 1024 1024" width="256" height="256" xmlns="http://www.w3.org/2000/svg">
<path transform="translate(0)" d="m0 0h1024v1024h-1024z" fill="#A0C753"/>
<path transform="translate(944,207)" d="m0 0h80v817h-1024v-816h110l-2 4-12 16-18 27-13 23-8 16-8 17-10 26-8 25-7 29-4 23-3 24-1 14v43l3 31 4 26 7 31 7 22 9 25 12 26 12 23 8 13 10 16 13 18 11 14 12 14 12 13 24 24 8 7 17 14 13 10 19 13 15 10 21 12 23 12 19 9 28 11 36 12 30 8 29 6 25 4 42 4h55l37-3 38-6 32-7 29-8 34-12 30-13 32-16 22-13 11-7 23-16 14-11 13-11 14-12 25-25 7-8 12-14 10-13 13-18 14-22 9-15 8-16 10-21 10-26 8-25 7-30 4-23 3-24 1-20v-26l-2-28-5-35-6-27-7-25-8-23-9-21-12-25-8-14-11-18-11-16-14-19-1-3z" fill="#FCFDF7"/>
<path transform="translate(220,298)" d="m0 0h585l1 1v393l-1 1h-145l-3-7-4-7-7-7 1-6 8-14 8-19 3-7 18-2 7-5 1-5v-22l-1-20-4-5-6-2-15-2-12-28-8-14 1-5 9-9 2-3-1-6-9-10-6-5v-2l-4-2-10-9-8-6-6-1-7 4-9 8h-5l-16-8-16-6-12-4-1-1v-45l42-2 2-1v-6l-8-8-8-7-12-11-13-12-11-9-10-10-16-14-7 4-11 11-11 9-8 8-11 9-14 13-11 9-7 7-1 6 3 2 40 1 2 2v14l-1 31-26 8-19 9-4 1-8-7-8-5-7 1-10 8-3 3h-2v2l-11 9-8 7-4 8 3 7 7 7 3 2-1 6-8 14-8 19-3 7-1 1h-9l-10 2-6 5v46l3 5 12 3 10 1 4 8 7 17 8 15 2 2-1 5-9 8-2 4-1 7-1 1h-145l-1-1z" fill="#FDFEF8"/>
<path transform="translate(0)" d="m0 0h1024v136l-170 1-12-1-18-13-17-12-24-15-26-14-29-14-28-11-36-12-36-9-39-7-27-3-28-2h-43l-31 2-31 4-27 5-30 7-27 8-26 9-27 11-29 14-25 14-22 14-18 13-10 8-6 3-173 1-9-1z" fill="#FCFDF7"/>
<path transform="translate(512,346)" d="m0 0 4 2 12 12 8 7 4 3v2l4 2 14 13 10 8v2l-27 1-6 2v67l10 2 16 4 15 6 16 8 3 2 5-1 11-9 4-3 4 1 6 7 11 9 9 8-5 5-7 8-2 3 1 6 8 13 8 16 5 15 2 7 23 3 1 16v19l-1 1-24 2-4 16-5 13-9 17-5 9 2 6 6 7 4 3-1 4-16 15-9 8-4-1-8-7-7-4-9 3-23 10-20 6-12 3-1 20-1 1h-38l-2-4-1-14-3-3-26-8-15-6-16-8h-5l-12 9-3 2-5-1-5-5-16-15-2-2 1-5 9-9 1-7-11-19-7-16-5-16-2-2-21-2-1-1v-34l2-2 18-1 3-1 9-26 8-16 7-10-1-7-9-10-2-2 1-4 10-9 13-12 2-2 4 1 11 9 2 1h8l21-10 18-6 15-4 3-2v-65l-8-2-25-1 6-7 13-11 7-7 8-7 15-14z" fill="#FDFEF8"/>
<path transform="translate(221,203)" d="m0 0h584l1 2v79l-1 1h-584l-1-1v-80z" fill="#FDFEF8"/>
<path transform="translate(512,346)" d="m0 0 4 2 12 12 8 7 4 3v2l4 2 14 13 10 8v2l-27 1-6 2v67l10 2 16 4 15 6 16 8 3 2 5-1 11-9 4-3 4 1 6 7 11 9 9 8-5 5-7 8-2 3 1 6 8 13 8 16 5 15 2 7 23 3 1 16v19l-1 1-24 2-4 16-5 13-9 17-5 9 2 6 6 7 4 3-1 4-16 15-9 8-4-1-8-7-7-4-9 3-23 10-20 6-12 3-1 20-1 1h-38l-2-4-1-14-3-3-26-8-15-6-16-8h-5l-12 9-3 2-5-1-5-5-16-15-2-2 1-5 9-9 1-7-11-19-7-16-5-16-2-2-21-2-1-1v-34l2-2 18-1 3-1 9-26 8-16 7-10-1-7-9-10-2-2 1-4 10-9 13-12 2-2 4 1 11 9 2 1h8l21-10 18-6 15-4 3-2v-65l-8-2-25-1 6-7 13-11 7-7 8-7 15-14zm-4 139-20 2-19 5-16 7-13 8-10 8-3 2v2l-4 2-7 8-9 12-8 15-5 16-2 12v24l4 17 5 12 9 16 9 11 8 9 13 10 14 8 14 6 16 5 20 3h18l16-2 15-4 13-5 17-9 13-10 14-14 7-10 8-14 6-15 3-13 1-15-2-17-5-17-8-17-12-16-11-11-15-11-25-12-13-4-16-3z" fill="#FDFEF8"/>
<path transform="translate(309,311)" d="m0 0h34l4 3 3 11 10 5 5-1 6-5 6 1 8 6 10 9 7 8-2 5-4 5 1 7 4 6 12 3 2 2v33l-6 4-10 2-4 8 2 6 3 3v6l-7 8-7 7-11 8-6-1-7-5-7 1-6 3-3 11-7 3h-25l-9-3-3-12-8-4h-5l-8 6-7-1-9-7-6-5v-2l-3-1-6-9 1-4 5-4 1-6-2-7-15-3-3-3-1-6v-24l2-4 8-3 7-2 4-8-1-5-5-4 1-6 9-10 11-10 6-3 6 2 5 5 5-1 9-4 3-12z" fill="#FCFDF7"/>
<path transform="translate(692,312)" d="m0 0h15l10 1 4 4 2 10 7 2 3 2h5l6-6 6 1 8 6 13 12 4 5-1 5-3 3h-2l1 8 3 7 13 3 3 4 1 21-2 10-6 4-10 1-2 6-1 1v6l6 7-4 7-12 12-10 7-4 1-9-6-8 1-5 3-3 10-6 4h-30l-5-2-2-4-1-8-10-5-5 1-6 5-3 1-7-3-12-11-8-8-1-7 6-6-1-9-2-4-13-2-4-4v-31l3-3 13-2 5-9-1-5-5-4-1-4 6-9 11-10 10-7 5 1 8 7 12-6 3-11 3-2z" fill="#FDFEF8"/>
<path transform="translate(0,136)" d="m0 0h182l-1 3-11 9-12 11-8 7-12 12-4 2-1-12h-2l-1 8-1 1h-9l-1-5v-4h-3v21h3v-9h10l3 3-9 11-8 10-3 3-13 1h-99z" fill="#1F2126"/>
<path transform="translate(844,136)" d="m0 0h180v71l-6 1h-98l-7-2-9-10-5-8v-11l4-6-7 2-2 3-6-8-7-1-5-1-13-12-10-9-9-7z" fill="#1F2126"/>
<path transform="translate(508,485)" d="m0 0 20 1 20 4 16 6 21 11 14 11 11 11 11 16 7 15 5 17 2 20-2 17-5 16-8 16-7 11-11 12-8 8-13 9-19 10-19 6-10 2-11 1h-18l-20-3-16-5-16-7-12-7-10-8-9-8-11-14-9-16-5-12-4-17v-24l3-16 6-16 8-14 8-10 8-9h2v-2l17-13 17-9 18-6 16-3zm-9 13-20 4-14 5-15 8-13 10-13 13-10 16-6 15-2 8-1 11v14l3 17 6 16 6 10 10 13 9 9 13 9 9 5 15 6 17 4 10 1h16l16-2 19-5 14-6 14-9 10-8 7-8 7-9 5-9 4-8 4-13 2-14v-12l-3-19-5-13-7-13-8-10-11-11-14-10-19-9-19-5-8-1z" fill="#A0C753"/>
<path transform="translate(309,311)" d="m0 0h34l4 3 3 11 10 5 5-1 6-5 6 1 8 6 10 9 7 8-2 5-4 5 1 7 4 6 12 3 2 2v33l-6 4-10 2-4 8 2 6 3 3v6l-7 8-7 7-11 8-6-1-7-5-7 1-6 3-3 11-7 3h-25l-9-3-3-12-8-4h-5l-8 6-7-1-9-7-6-5v-2l-3-1-6-9 1-4 5-4 1-6-2-7-15-3-3-3-1-6v-24l2-4 8-3 7-2 4-8-1-5-5-4 1-6 9-10 11-10 6-3 6 2 5 5 5-1 9-4 3-12zm11 13-2 2-1 9-9 2-19 8-4-1-4-4-3-1-9 7-1 5 5 4h2l-3 8-6 12-3 8-10 1-2 2v12l12 3 8 18 3 6-1 4-5 3-1 4 8 8 5 1 4-4 1-2 7 1 14 6 10 4 2 10 1 1h12l2-1 2-10 10-4 12-5 8-2 5 5 5 1 7-6 2-6-5-4h-2l9-20 4-8 10-2 1-1v-12l-2-1-9-1-5-12-7-13 1-4 6-4-2-5-8-6-5 1-4 4-6-1-16-7-9-2-1-9-2-2z" fill="#A1C854"/>
<path transform="translate(692,312)" d="m0 0h15l10 1 4 4 2 10 7 2 3 2h5l6-6 6 1 8 6 13 12 4 5-1 5-3 3h-2l1 8 3 7 13 3 3 4 1 21-2 10-6 4-10 1-2 6-1 1v6l6 7-4 7-12 12-10 7-4 1-9-6-8 1-5 3-3 10-6 4h-30l-5-2-2-4-1-8-10-5-5 1-6 5-3 1-7-3-12-11-8-8-1-7 6-6-1-9-2-4-13-2-4-4v-31l3-3 13-2 5-9-1-5-5-4-1-4 6-9 11-10 10-7 5 1 8 7 12-6 3-11 3-2zm2 12-2 1-1 3v8l-11 3-13 5-5 3h-2l-5-6h-5l-9 9 6 6-1 7-7 14-2 8h-10l-3 2v9l2 4 11 1 3 9 7 15-1 5-5 5 2 5 7 6 5-1 4-5 7 1 11 5 12 4h2v10l1 1 13 1 2-1 1-10 11-4 13-5 1-1h7l5 6 4-1 8-8v-5l-6-2 3-9 6-13 3-7 9-2 3-4v-8l-2-2h-9l-9-20-3-6v-4l5-3 1-3-4-5-6-5-4 2-5 4-5-1-14-6-12-3v-9l-1-2-3-1z" fill="#A1C854"/>
<path transform="translate(318,356)" d="m0 0h18l10 4 10 7 5 6 4 8 2 10-1 11-5 10-9 9-10 5-8 2h-18l-11-4-8-6-7-8-4-9-1-11 2-9 5-9 8-9 13-6z" fill="#FDFEF8"/>
<path transform="translate(692,357)" d="m0 0h16l11 4 9 6 8 9 4 11v14l-3 8-8 10-8 6-13 4h-19l-11-4-9-7-6-8-4-11v-12l4-10 7-9 8-6 10-4z" fill="#FDFEF8"/>
<path transform="translate(691,345)" d="m0 0h17l12 3 10 5 10 8 8 11 5 12 1 6v9l-4 13-8 11-4 5-10 7-12 5-9 2h-16l-14-4-13-7-8-8-8-14-3-13 1-12 5-12 7-10 8-7 14-7zm1 12-12 4-9 6-7 8-4 8-1 4v12l4 11 7 9 8 6 11 4h19l13-4 9-7 8-11 2-6v-14l-4-11-9-10-10-6-9-3z" fill="#A0C753"/>
<path transform="translate(312,345)" d="m0 0h28l13 5 10 7 8 8 7 14 2 8v12l-3 10-9 14-10 9-13 6-12 3h-15l-12-3-15-8-7-6-7-11-4-10-1-5v-12l4-13 7-11 9-8 14-7zm6 11-10 3-9 5-8 9-5 10-1 12 2 9 6 10 7 7 12 6 4 1h18l13-4 8-6 7-8 4-8 1-11-2-10-5-10-9-8-11-6-4-1z" fill="#9FC653"/>
<path transform="translate(567,240)" d="m0 0h199l1 1v9l-2 2h-190l-7-1-1-1z" fill="#A1C854"/>
<path transform="translate(517,550)" d="m0 0 9 1 1 1v7l-17 74-3 6h-9l-2-1v-7l15-63 4-16z" fill="#A0C753"/>
<path transform="translate(71,159)" d="m0 0 4 1 2 3 5 3 1-3 3-1 2 2v7l2 4v5l-3-1 1 17-1 1h-29l-1-1v-12l4-8 1-3-6 7-3-1 2-4 2-3h2l2-4z" fill="#A1C855"/>
<path transform="translate(546,572)" d="m0 0 7 1 31 16 4 3v5l-9 7-26 13-6 1-4-5v-5l13-8 9-4h3v-2l-6-2-17-9-3-3 2-6z" fill="#A1C854"/>
<path transform="translate(473,572)" d="m0 0h6l4 5v4l-10 6-14 7v2l19 9 5 4-1 5-4 4-9-3-25-13-7-5 1-5 9-7z" fill="#A1C854"/>
<path transform="translate(259,240)" d="m0 0h35l1 1v10l-1 1h-33l-2-1-1-10z" fill="#A1C854"/>
<path transform="translate(439,240)" d="m0 0h35l1 1v9l-2 2h-31l-3-1-1-10z" fill="#A1C854"/>
<path transform="translate(349,240)" d="m0 0h35l2 3-1 8-3 1h-31l-2-2z" fill="#A1C854"/>
<path transform="translate(1008,172)" d="m0 0h14l2 1v14l-4 3-7 1-2 7-4-2z" fill="#E6F0CF"/>
<path transform="translate(911,171)" d="m0 0 7 1 5 6-1 8-5 4h-8l-4-4-1-7 4-7z" fill="#DEECC1"/>
<path transform="translate(0,160)" d="m0 0 4 2 4 8v14l-5 10-3 1z" fill="#8DAE4D"/>
<path transform="translate(116,167)" d="m0 0 4 1v9l9-1 1-8h4v8h-3l2 1v4l-14-1 1 2v7l-4 1-1-1v-21z" fill="#D8E8B7"/>
<path transform="translate(982,172)" d="m0 0h12l3 4-1 13-4 1-1-14h-4l-2 14h-4l-1-15z" fill="#E5F0CD"/>
<path transform="translate(970,166)" d="m0 0 7 2 2 5-5-2h-6l1 4 6 3 2 3v6l-3 3h-8l-3-2v-2h9l-1-5-6-3-3-4 2-6z" fill="#DFECC2"/>
<path transform="translate(69,182)" d="m0 0h8v12l-1 1h-6l-3-2v-10z" fill="#1F2126"/>
<path transform="translate(71,159)" d="m0 0 4 1v2h-4l-2 4-9 9-4 5-3-1 2-4 2-3h2l2-4z" fill="#CAE09D"/>
<path transform="translate(1013,175)" d="m0 0h6l2 2-1 8-4 2-4-1v-9z" fill="#1F2126"/>
<path transform="translate(912,174)" d="m0 0 4 1 2 3v6l-3 3-4-1-2-3 1-7z" fill="#1F2126"/>
<path transform="translate(131,167)" d="m0 0 3 1v8h-3l2 1v4h-15v-2l4-2 7-1 1-8z" fill="#D3E5AD"/>
<path transform="translate(1e3 172)" d="m0 0 4 1v16l-5 1v-17z" fill="#D9E9B8"/>
<path transform="translate(881,166)" d="m0 0 7 1 4 4 2 4v3l-4-1-4-5-2-1v-2l-4-1z" fill="#DFECC3"/>
<path transform="translate(899,171)" d="m0 0h4l-2 5-3 1v7l-3-3 1-9z" fill="#EBF3D7"/>
<path transform="translate(131,167)" d="m0 0 3 1v8h-4v-8z" fill="#E1EEC7"/>
<path transform="translate(881,170)" d="m0 0 5 1 5 6 3 2-1 2-9-7z" fill="#1F2126"/>
<path transform="translate(57,172)" d="m0 0h3l-1 5-3 3-3-1 2-4z" fill="#CAE09D"/>
<path transform="translate(71,163)" d="m0 0 3 2-4 5-6 1 6-7z" fill="#232627"/>
<path transform="translate(970,166)" d="m0 0 7 2 2 5-10-4z" fill="#DDEBBF"/>
<path transform="translate(69,163)" d="m0 0 2 1-10 10v-3l4-6z" fill="#A1C854"/>
</svg>
